<?xml version="1.0" encoding="utf-8"?>
<!-- Generator: Adobe Illustrator 26.5.2, SVG Export Plug-In . SVG Version: 6.00 Build 0)  -->
<svg version="1.1" id="Layer_1" xmlns="http://www.w3.org/2000/svg" xmlns:xlink="http://www.w3.org/1999/xlink" x="0px" y="0px"
	 viewBox="0 0 678.58 162.68" style="enable-background:new 0 0 678.58 162.68;" xml:space="preserve">
<style type="text/css">
	.st0{fill:url(#SVGID_1_);}
	.st1{fill:#DEDEE2;}
</style>
<g>
	<linearGradient id="SVGID_1_" gradientUnits="userSpaceOnUse" x1="109.8159" y1="116.1573" x2="301.7594" y2="116.1573">
		<stop  offset="0" style="stop-color:#FFFFFF"/>
		<stop  offset="0" style="stop-color:#DEDEE2"/>
		<stop  offset="0.5" style="stop-color:#BFBFC2"/>
		<stop  offset="1" style="stop-color:#DEDEE2"/>
	</linearGradient>
	<path class="st0" d="M255.5,162.41c-6,0-11.86-1.14-17.4-3.39c-5.74-2.33-10.89-5.75-15.31-10.16l-0.15-0.15l-0.14-0.15
		l-16.72-18.23l-16.86,18.38l-0.15,0.15c-4.41,4.41-9.56,7.83-15.31,10.16c-5.54,2.25-11.4,3.39-17.4,3.39
		c-6,0-11.86-1.14-17.4-3.39c-5.74-2.33-10.89-5.75-15.31-10.16c-4.41-4.41-7.83-9.56-10.16-15.31c-2.25-5.54-3.39-11.4-3.39-17.4
		c0-6,1.14-11.86,3.39-17.4c2.33-5.74,5.75-10.89,10.16-15.31c4.41-4.41,9.56-7.83,15.31-10.16c5.54-2.25,11.4-3.39,17.4-3.39
		c6,0,11.86,1.14,17.4,3.39c5.74,2.33,10.89,5.75,15.31,10.16l0.15,0.15l0.14,0.15l16.72,18.23l16.86-18.38l0.15-0.15
		c4.41-4.41,9.56-7.83,15.31-10.16c5.54-2.25,11.4-3.39,17.4-3.39c6,0,11.86,1.14,17.4,3.39c5.74,2.33,10.89,5.75,15.31,10.16
		c4.41,4.41,7.83,9.56,10.16,15.31c2.25,5.54,3.39,11.4,3.39,17.4c0,6-1.14,11.86-3.39,17.4c-2.33,5.74-5.75,10.89-10.16,15.31
		c-4.41,4.41-9.56,7.83-15.31,10.16C267.36,161.27,261.51,162.41,255.5,162.41z M236.48,135.45c10.57,10.43,27.66,10.38,38.18-0.13
		c5.12-5.12,7.93-11.92,7.93-19.16s-2.82-14.04-7.93-19.16c-10.52-10.52-27.6-10.56-38.18-0.13l-17.69,19.29L236.48,135.45z
		 M156.07,89.08c-6.94,0-13.87,2.64-19.16,7.92c-5.12,5.12-7.93,11.92-7.93,19.16s2.82,14.04,7.93,19.16
		c10.52,10.52,27.6,10.56,38.18,0.13l17.69-19.29l-17.69-19.29C169.83,91.68,162.95,89.08,156.07,89.08z"/>
</g>
<g>
	<path class="st1" d="M39.64,10.74c15,0,26.87,3.1,35.61,9.29c8.74,6.19,13.11,15.62,13.11,28.28c0,8.26-1.86,15.35-5.57,21.26
		c-3.72,5.92-8.91,10.5-15.59,13.73c-6.68,3.24-14.55,4.99-23.64,5.26l-3.1-11.35c10.46,0.14,19.85,1.86,28.18,5.16
		c8.33,3.3,14.93,7.98,19.82,14.04c4.88,6.06,7.33,13.21,7.33,21.47c0,7.57-1.41,14.07-4.23,19.51c-2.82,5.44-6.61,9.84-11.35,13.21
		c-4.75,3.37-10.12,5.85-16.1,7.43c-5.99,1.58-12.22,2.37-18.68,2.37H0V10.74H39.64z M43.56,75.35c7.71,0,13.32-2.2,16.83-6.61
		c3.51-4.4,5.26-9.7,5.26-15.9c0-7.15-2.24-12.45-6.71-15.9c-4.47-3.44-10.63-5.16-18.48-5.16H21.88v43.56H43.56z M44.39,139.97
		c5.37,0,10.22-0.79,14.55-2.37c4.34-1.58,7.77-3.99,10.32-7.23c2.55-3.23,3.82-7.33,3.82-12.28c0-5.5-1.48-9.81-4.44-12.9
		c-2.96-3.1-6.78-5.33-11.46-6.71c-4.68-1.37-9.43-2.06-14.24-2.06H21.88v43.56H44.39z"/>
	<path class="st1" d="M355.49,162.68c-8.12,0-15.42-1.93-21.88-5.78c-6.47-3.85-11.56-9.32-15.28-16.41
		c-3.72-7.09-5.57-15.24-5.57-24.46c0-9.63,1.99-17.86,5.99-24.67c3.99-6.81,9.43-12.04,16.31-15.69
		c6.88-3.65,14.59-5.47,23.12-5.47c6.47,0,12.7,1.34,18.68,4.03c5.99,2.68,10.63,6.5,13.94,11.46l-0.62,7.23V0h21.26v160.41h-21.47
		v-20.44l2.27,5.37c-4.27,4.96-9.5,9.08-15.69,12.39C370.36,161.03,363.34,162.68,355.49,162.68z M362.1,144.51
		c4.68,0,8.95-0.83,12.8-2.48c3.85-1.65,7.05-4.03,9.6-7.12c2.54-3.1,4.37-6.71,5.47-10.84v-17.34c-1.1-3.85-2.96-7.23-5.57-10.12
		c-2.62-2.89-5.85-5.19-9.7-6.92c-3.85-1.72-8.05-2.58-12.59-2.58c-5.09,0-9.74,1.24-13.94,3.72c-4.2,2.48-7.54,5.82-10.01,10.01
		c-2.48,4.2-3.72,9.12-3.72,14.76c0,5.37,1.24,10.25,3.72,14.66c2.48,4.41,5.85,7.88,10.12,10.43
		C352.53,143.24,357.15,144.51,362.1,144.51z"/>
	<path class="st1" d="M442.82,42.94c0-3.3,1.34-6.06,4.03-8.26c2.68-2.2,5.54-3.3,8.57-3.3c3.03,0,5.78,1.1,8.26,3.3
		c2.48,2.2,3.72,4.96,3.72,8.26c0,3.3-1.24,6.06-3.72,8.26c-2.48,2.2-5.23,3.3-8.26,3.3c-3.03,0-5.88-1.1-8.57-3.3
		C444.16,49,442.82,46.24,442.82,42.94z M444.06,74.11h21.26v86.3h-21.26V74.11z"/>
	<path class="st1" d="M491.43,140.28c2.41-2.27,5.12-3.41,8.15-3.41c2.61,0,5.19,1.14,7.74,3.41c2.54,2.27,3.82,5.06,3.82,8.36
		c0,3.58-1.27,6.44-3.82,8.57c-2.55,2.14-5.13,3.2-7.74,3.2c-3.03,0-5.75-1.06-8.15-3.2c-2.41-2.13-3.61-4.99-3.61-8.57
		C487.82,145.34,489.02,142.55,491.43,140.28z"/>
	<path class="st1" d="M569.16,162.68c-8.12,0-15.48-1.75-22.09-5.26c-6.61-3.51-11.84-8.6-15.69-15.28
		c-3.86-6.67-5.78-14.97-5.78-24.88c0-9.77,2.03-18.17,6.09-25.19c4.06-7.02,9.39-12.42,16-16.21c6.61-3.78,13.9-5.68,21.88-5.68
		c8.26,0,15.04,1.75,20.33,5.26c5.3,3.51,9.46,7.67,12.49,12.49l-1.24,3.1l1.86-16.93h19.61v86.3h-21.06v-21.88l2.06,5.37
		c-0.55,0.96-1.72,2.48-3.51,4.54c-1.79,2.06-4.17,4.2-7.12,6.4c-2.96,2.2-6.43,4.06-10.42,5.57
		C578.59,161.92,574.12,162.68,569.16,162.68z M574.94,145.13c4.54,0,8.6-0.83,12.18-2.48c3.58-1.65,6.61-3.96,9.08-6.92
		c2.48-2.96,4.26-6.57,5.37-10.84v-17.96c-1.1-3.72-2.99-7.02-5.68-9.91c-2.68-2.89-5.85-5.19-9.5-6.92
		c-3.65-1.72-7.67-2.58-12.08-2.58c-4.95,0-9.53,1.24-13.73,3.72c-4.2,2.48-7.47,5.82-9.81,10.01c-2.34,4.2-3.51,9.19-3.51,14.97
		c0,5.37,1.24,10.25,3.72,14.66c2.48,4.41,5.85,7.88,10.12,10.43C565.37,143.86,569.99,145.13,574.94,145.13z"/>
	<path class="st1" d="M654.01,42.94c0-3.3,1.34-6.06,4.03-8.26c2.68-2.2,5.54-3.3,8.57-3.3c3.03,0,5.78,1.1,8.26,3.3
		c2.48,2.2,3.72,4.96,3.72,8.26c0,3.3-1.24,6.06-3.72,8.26c-2.48,2.2-5.23,3.3-8.26,3.3c-3.03,0-5.88-1.1-8.57-3.3
		C655.35,49,654.01,46.24,654.01,42.94z M655.25,74.11h21.26v86.3h-21.26V74.11z"/>
</g>
</svg>
